<svg height="428pt" viewBox="0 -9 428 428" width="428pt" xmlns="http://www.w3.org/2000/svg"><path d="m215.40625 379 23.59375-22.636719v-217.683593l-23.59375-22.679688h-71.484375l-23.921875 22.679688v217.683593l23.921875 22.636719zm-35.742188-19.144531c-11.472656 0-20.773437-9.300781-20.773437-20.769531 0-11.472657 9.300781-20.773438 20.773437-20.773438 11.46875 0 20.769532 9.300781 20.769532 20.773438-.011719 11.464843-9.304688 20.757812-20.769532 20.769531zm0-224.667969c11.46875-.003906 20.769532 9.296875 20.769532 20.769531 0 11.472657-9.296875 20.769531-20.769532 20.769531-11.472656 0-20.769531-9.296874-20.769531-20.769531.011719-11.464843 9.300781-20.757812 20.769531-20.769531zm-57.886718 112.332031c0-31.96875 25.914062-57.886719 57.886718-57.886719 31.96875 0 57.886719 25.917969 57.886719 57.886719 0 31.972657-25.917969 57.886719-57.886719 57.886719-31.957031-.035156-57.851562-25.929688-57.886718-57.886719zm0 0"/><path d="m179.664062 330.316406c-4.84375 0-8.773437 3.925782-8.773437 8.769532s3.929687 8.769531 8.773437 8.769531 8.769532-3.925781 8.769532-8.769531c-.003906-4.84375-3.929688-8.765626-8.769532-8.769532zm0 0"/><path d="m188.433594 155.957031c0 4.84375-3.925782 8.769531-8.769532 8.769531s-8.773437-3.925781-8.773437-8.769531 3.929687-8.769531 8.773437-8.769531 8.769532 3.925781 8.769532 8.769531zm0 0"/><path d="m89 410h181v-325h-181v44.25c0 .230469.046875.46875.046875.710938 0 .238281-.046875.476562-.046875.710937zm19-273.882812c-.023438-1.601563.621094-3.140626 1.78125-4.246094l27.582031-26.378906c1.136719-1.019532 2.625-1.554688 4.148438-1.492188h76.300781c1.523438-.0625 3.011719.472656 4.148438 1.492188l27.417968 26.378906c1.117188 1.121094 1.707032 2.664062 1.621094 4.246094v222.808593c.085938 1.578125-.503906 3.117188-1.617188 4.234375l-27.417968 26.367188c-1.136719 1.015625-2.628906 1.542968-4.148438 1.472656h-76.300781c-1.511719.070312-2.992187-.457031-4.113281-1.472656l-27.617188-26.269532c-1.164062-1.136718-1.808594-2.703124-1.785156-4.332031zm0 0"/><path d="m225.550781 247.519531c0-25.339843-20.546875-45.886719-45.886719-45.886719-25.34375 0-45.886718 20.546876-45.886718 45.886719 0 25.34375 20.542968 45.886719 45.886718 45.886719 25.328126-.027344 45.855469-20.554688 45.886719-45.886719zm-76.363281 7.480469h-3.1875c-3.3125 0-6-2.6875-6-6s2.6875-6 6-6h2.199219c2.082031-8.371094 9.589843-14.25 18.214843-14.265625 3.3125 0 6 2.6875 6 6 0 3.316406-2.6875 6-6 6-3.75 0-6.789062 3.039063-6.789062 6.789063 0 3.746093 3.039062 6.785156 6.789062 6.785156 3.746094 0 6.785157-3.039063 6.785157-6.789063-.011719-9.492187 7.070312-17.5 16.496093-18.652343 9.425782-1.152344 18.226563 4.914062 20.503907 14.132812h2.800781c3.3125 0 6 2.6875 6 6s-2.6875 6-6 6h-3.796875c-2.980469 6.859375-9.742187 11.296875-17.222656 11.308594-3.3125 0-6-2.6875-6-6 0-3.316406 2.6875-6 6-6 3.75 0 6.789062-3.039063 6.789062-6.785156 0-3.75-3.039062-6.789063-6.789062-6.789063-3.746094 0-6.785157 3.039063-6.785157 6.785156.003907 8.902344-6.242187 16.585938-14.960937 18.394531-8.714844 1.8125-17.503906-2.746093-21.046875-10.914062zm0 0"/><path d="m339 85h-11v325h11v-235.851562c0-.230469-.046875-.464844-.046875-.703126 0-.242187.046875-.472656.046875-.703124v-41.585938c0-.386719-.121094-.785156-.121094-1.199219 0-.410156.121094-.808593.121094-1.199219zm0 0"/><path d="m77 136h-39.269531c-1.570313-.019531-3.0625-.671875-4.140625-1.8125-1.078125-1.136719-1.652344-2.660156-1.589844-4.226562v-92.402344c-.046875-1.515625.550781-2.984375 1.640625-4.039063 1.089844-1.058593 2.574219-1.609375 4.089844-1.519531h352.539062c1.515625-.089844 3 .460938 4.089844 1.515625 1.089844 1.058594 1.683594 2.523437 1.640625 4.039063v92.402343c.0625 1.566407-.511719 3.089844-1.589844 4.226563-1.078125 1.140625-2.570312 1.792968-4.140625 1.8125h-39.269531v31h77v-166.996094h-428v167h77zm0 0"/><path d="m305 85h11v325h-11zm0 0"/><path d="m106.210938 73h238.46875c3.398437.027344 6.179687 2.71875 6.320312 6.113281v44.886719h33v-80h-340v80h33v-44.886719c.140625-3.394531 2.921875-6.085937 6.320312-6.113281zm0 0"/><path d="m282 85h11v325h-11zm0 0"/></svg>